<svg id="Layer_1" data-name="Layer 1" xmlns="http://www.w3.org/2000/svg" viewBox="0 0 496.35 496.35"><defs><style>.cls-1{fill:#2e2e2e;}</style></defs><title>Google_Scholar_icon</title><path class="cls-1" d="M1502.82,1252.8c-137.06,0-248.18,111.11-248.18,248.18s111.11,248.18,248.18,248.18S1751,1638,1751,1501,1639.89,1252.8,1502.82,1252.8Zm136.77,92.15c-9.63,7.7-12.79,14.61-8,25.66,5.93,13.67,5.2,27.46,5,41.65-.18,13.79,1.59,27.6,1.86,41.41.26,13.29.27,26.64-.7,39.88-.63,8.58-5.07,11.28-13.25,10.43-6.43-.66-9.56-3-10.34-9.49a197.11,197.11,0,0,1-1.59-25.39c.22-25,.64-50,1.53-74.91.2-5.64,2.29-11.31,4.12-16.76s3.79-10.57,1.64-17a60.1,60.1,0,0,0-5.74,3.43c-12.84,9.8-25.6,19.72-38.45,29.5-4.45,3.39-5.6,7.35-3.73,12.67,2,5.8,3.62,11.77,5.21,17.72,5.25,19.58-1.45,35.73-15,49.51-4.76,4.84-10.61,8.59-15.78,13-15.2,13.08-15.55,27.84-.59,41.25a133.81,133.81,0,0,0,20.28,15.38c33.3,19.91,39.1,82.31-5.39,105.74-41.42,21.82-84,22.55-126,1-11.78-6-21.46-14.81-26.45-27.56-4.7-12-2.68-23.59,3.22-34.66,10.52-19.72,27.55-31.11,48.41-37.55,15.1-4.66,30.66-6.13,46.34-6.79,1.48-.06,3,0,5.42,0-8.53-13.8-14.31-27.19-6.94-43-20.1-.46-39.31-2.87-55.24-16s-21.24-31.65-23.57-51.84h-69.38c2-2,3.12-3.33,4.42-4.47q50.71-44.15,101.51-88.2a10.31,10.31,0,0,1,6.12-2.49q87-.2,174-.1c1.1,0,2.2.15,5,.34C1644.2,1340.56,1642.07,1343,1639.6,1344.95Z" transform="translate(-1254.65 -1252.8)"/><path class="cls-1" d="M1547.76,1438a32.71,32.71,0,0,0-.89-5.42c-5.16-22.08-15.81-40.41-36.87-50.65-19.58-9.52-40.35-1.09-48.64,18.93-13,31.5,8.73,78.87,41.16,89.59,12.8,4.23,24.62,1,33.31-9.4a50.68,50.68,0,0,0,12-35.57C1547.8,1443,1547.91,1440.51,1547.76,1438Z" transform="translate(-1254.65 -1252.8)"/><path class="cls-1" d="M1455.73,1567.08c-9.08,6.34-15.06,15-16.75,26.18-2.9,19.33,4.17,34.28,20.25,45,14.21,9.43,30.25,12.55,47.24,12.82,16-.36,31.58-3.34,45.25-12.78,9-6.2,15.39-14.37,17.21-25.32,3.2-19.17-2.93-34.74-18.84-46.23C1519.7,1544.74,1479.8,1550.28,1455.73,1567.08Z" transform="translate(-1254.65 -1252.8)"/></svg>