<?xml version="1.0" encoding="utf-8"?>
<!-- Generator: Adobe Illustrator 20.1.0, SVG Export Plug-In . SVG Version: 6.00 Build 0)  -->
<svg version="1.1" id="Layer_1" xmlns="http://www.w3.org/2000/svg" xmlns:xlink="http://www.w3.org/1999/xlink" x="0px" y="0px"
	 viewBox="0 0 256 256" style="enable-background:new 0 0 256 256;" xml:space="preserve">
<style type="text/css">
	.st0{fill:#2E2E2E;}
</style>
<title>ORCID_iD_icon</title>
<g>
	<path class="st0" d="M148,93h-23.7v79.4h24.5c34.9,0,42.9-26.5,42.9-39.7C191.7,111.2,178,93,148,93z"/>
	<path class="st0" d="M128,0C57.3,0,0,57.3,0,128s57.3,128,128,128s128-57.3,128-128S198.7,0,128,0z M86.3,186.2H70.9V79.1h15.4
		V186.2z M78.6,66.9c-5.6,0-10.1-4.5-10.1-10.1S73,46.7,78.6,46.7c5.6,0,10.1,4.5,10.1,10.1C88.7,62.4,84.2,66.9,78.6,66.9z
		 M150.7,186.3h-41.8V79.1h41.6c39.6,0,57,28.3,57,53.6C207.5,160.2,186,186.3,150.7,186.3z"/>
</g>
</svg>
