<?xml version="1.0" encoding="utf-8"?>
<!-- Generator: Adobe Illustrator 20.1.0, SVG Export Plug-In . SVG Version: 6.00 Build 0)  -->
<svg version="1.1" id="Layer_1" xmlns="http://www.w3.org/2000/svg" xmlns:xlink="http://www.w3.org/1999/xlink" x="0px" y="0px"
	 viewBox="0 0 373.2 350.8" style="enable-background:new 0 0 373.2 350.8;" xml:space="preserve">
<style type="text/css">
	.st0{fill:#2E2E2E;}
</style>
<title>Researcher_iD_icon</title>
<g id="Capa_1">
	<path class="st0" d="M263.8,112.7c-4.9,4.7-12.7,4.6-17.4-0.3c-4.6-4.8-4.6-12.4,0-17.1c4.8-4.8,12.6-4.8,17.4-1
		C268.6,100.1,268.6,106.9,263.8,112.7 M143.8,84.7c-1.9-1.9-5.8-1.9-8.7,0c-1.9,1.9-1.9,5.8,0,8.7c1.9,1.9,5.8,1.9,8.7,0
		C146.7,90.5,146.7,87.6,143.8,84.7z M173.8,73c-2.9-2.9-7.7-2.9-10.6,0s-2.9,7.7,0,10.6s7.7,2.9,10.6,0c0,0,0,0,0,0
		C176.7,80.7,176.7,76,173.8,73z M206.7,71.1c-3.9-3.9-9.7-2.9-13.6,0c-3.9,3.9-2.9,9.7,0,13.6c3.9,3.9,9.7,2.9,13.6,0
		C210.6,80.8,209.6,75,206.7,71.1z M236.7,78.9c-3.9-3.9-10.6-3.9-14.5,0c-3.9,3.9-3.9,10.6,0,14.5c3.9,3.9,10.6,3.9,14.5,0
		C241.5,89.5,241.5,82.7,236.7,78.9L236.7,78.9z M118.6,105c-1.9-1.9-4.8-1.9-5.8,0c-1.9,1.9-1.9,4.8,0,5.8c1.9,1.9,4.8,1.9,5.8,0
		C120.6,109.8,120.6,106.9,118.6,105z M272.5,214.4c-1.9,1.9-1.9,5.8,0,8.7c2.9,1.9,5.8,1.9,8.7,0c1.9-1.9,1.9-5.8,0-8.7
		C278.3,211.5,274.5,211.5,272.5,214.4z M280.3,183.4c-2.9,2.9-2.9,7.7,0,10.6c2.9,2.9,7.7,2.9,10.6,0c2.9-2.9,2.9-7.7,0-10.6
		c0,0,0,0,0,0C288,180.5,283.2,180.5,280.3,183.4L280.3,183.4z M278.3,151.4c-3.9,3.9-2.9,9.7,0,13.6c3.9,3.9,9.7,2.9,13.6,0
		c3.9-3.9,2.9-9.7,0-13.6C287,147.6,281.2,147.6,278.3,151.4L278.3,151.4z M266.7,121.4c-3.9,3.9-3.9,10.6,0,14.5
		c3.9,3.9,10.6,3.9,14.5,0c3.9-3.9,3.9-10.6,0-14.5C277.4,116.6,270.6,117.6,266.7,121.4L266.7,121.4z M256.1,240.5
		c-1.9,1.9-1.9,4.8,0,5.8c1.9,1.9,4.8,1.9,5.8,0c1.9-1.9,1.9-4.8,0-5.8C260.9,239.5,258,239.5,256.1,240.5L256.1,240.5z
		 M128.3,256.9c4.8-4.8,3.9-12.6-1-17.4c-4.8-4.8-12.6-3.9-17.4,1c-4.8,4.8-3.9,12.6,1,17.4C115.7,261.8,123.5,261.8,128.3,256.9z
		 M102.2,137.9c1.9-1.9,1.9-5.8,0-8.7c-1.9-1.9-5.8-1.9-8.7,0c-1.9,1.9-1.9,5.8,0,8.7C95.8,140.3,99.7,140.3,102.2,137.9
		C102.1,137.9,102.1,137.9,102.2,137.9z M94.4,168.9c2.9-2.9,2.9-7.7,0-10.6s-7.7-2.9-10.6,0s-2.9,7.7,0,10.6c0,0,0,0,0,0
		C86.7,171.8,91.5,171.8,94.4,168.9L94.4,168.9z M97.3,200.8c3.9-3.9,2.9-9.7,0-13.6c-3.9-3.9-9.7-2.9-13.6,0
		c-3.9,3.9-2.9,9.7,0,13.6c3.6,3.7,9.5,3.9,13.2,0.3C97.1,201,97.2,200.9,97.3,200.8L97.3,200.8z M108,230.8
		c3.9-3.9,3.9-10.6,0-14.5c-3.9-3.9-10.6-3.9-14.5,0c-3.9,3.9-3.9,10.6,0,14.5C97.3,235.6,104.1,234.7,108,230.8z M230.9,267.6
		c1.9,1.9,5.8,1.9,8.7,0c1.9-1.9,1.9-5.8,0-8.7c-1.9-1.9-5.8-1.9-8.7,0C228,260.8,229,264.7,230.9,267.6L230.9,267.6z M200.9,279.2
		c2.9,2.9,7.7,2.9,10.6,0c2.9-2.9,2.9-7.7,0-10.6c-2.9-2.9-7.7-2.9-10.6,0c0,0,0,0,0,0C198,271.5,198,276.2,200.9,279.2L200.9,279.2
		z M168,281.2c3.9,3.9,9.7,2.9,13.6,0c3.7-3.6,3.9-9.5,0.3-13.2c-0.1-0.1-0.2-0.2-0.3-0.3c-3.9-3.9-9.7-2.9-13.6,0
		C164.1,271.5,165.1,277.3,168,281.2L168,281.2z M138,273.4c3.9,3.9,10.6,3.9,14.5,0c3.9-3.9,3.9-10.6,0-14.5s-10.6-3.9-14.5,0
		C133.1,262.7,134.1,269.5,138,273.4L138,273.4z M217.3,107.9c-1.9,4.8-6.8,7.8-11.6,6.8c-4.8-1.9-7.8-6.8-6.8-11.6
		c1-4.8,6.8-7.8,11.6-6.8C216.4,97.2,219.3,102.1,217.3,107.9z M127.3,130.1c-2.9-1-4.8,1-5.8,2.9c-1,2.9,1,4.8,2.9,5.8
		c2.9,1,4.8-1,5.8-2.9C131.2,133.1,130.2,130.1,127.3,130.1z M143.8,111.8c-2.9-1-5.8,1-6.8,3.9c-1,2.9,1,5.8,3.9,6.8
		c2.9,1,5.8-1,6.8-3.9C148.6,115.6,146.7,112.7,143.8,111.8L143.8,111.8z M164.1,99.2c-3.9-1-7.8,1-8.7,4.8c-1,3.9,1,7.8,4.8,8.7
		c3.9,1,7.8-1,8.7-4.8C170.9,104,168,100.1,164.1,99.2z M187.3,94.3c-4.8-1-8.7,1-9.7,5.8c-1,3.9,1,8.7,5.8,9.7c3.9,1,8.7-1,9.7-5.8
		C194.1,100.1,192.2,95.3,187.3,94.3L187.3,94.3z M116.7,151.4c-1.9-1-3.9,1-3.9,1.9c-1,1.9,1,3.9,1.9,3.9c1.9,1,3.9-1,3.9-1.9
		C119.6,154.3,118.6,152.4,116.7,151.4z M257,172.7c-1,2.9,1,4.8,2.9,5.8c2.9,1,4.8-1,5.8-2.9c1-1.9-1-4.8-2.9-5.8
		C260.9,168.9,258,169.8,257,172.7z M252.2,149.5c-1,2.9,1,5.8,3.9,6.8c2.9,1,5.8-1,6.8-3.9c1-2.9-1-5.8-3.9-6.8
		C256,144.7,253.2,146.6,252.2,149.5L252.2,149.5z M239.6,128.2c-1,3.9,1,7.8,4.8,8.7c3.9,1,7.8-1,8.7-4.8s-1-7.8-4.8-8.7
		C244.4,122.4,240.6,125.3,239.6,128.2L239.6,128.2z M221.2,112.7c-1,3.9,1,8.7,5.8,9.7c3.9,1,8.7-1,9.7-5.8c1-3.9-1-8.7-5.8-9.7
		C227,106,223.2,107.9,221.2,112.7L221.2,112.7z M255.1,196c-1,1.9,1,3.9,1.9,3.9c1.9,1,3.9-1,3.9-1.9c1-1.9-1-3.9-1.9-3.9
		C258,193.1,256.1,194,255.1,196z M175.7,250.2c1.7-4.4-0.5-9.4-4.9-11.1c-0.6-0.2-1.2-0.4-1.8-0.5c-4.8-1-10.6,1-11.6,6.8
		c-1,4.8,1,10.6,6.8,11.6C169,257.9,173.8,255,175.7,250.2z M117.7,179.5c1-2.9-1-4.8-2.9-5.8c-2.9-1-4.8,1-5.8,2.9
		c-1,2.9,1,4.8,2.9,5.8C114.8,183.4,116.7,182.4,117.7,179.5z M122.5,202.7c1-2.9-1-5.8-3.9-6.8s-5.8,1-6.8,3.8
		c-1,2.9,1,5.8,3.9,6.8S122.5,205.6,122.5,202.7L122.5,202.7z M136,223.1c1-3.9-1-7.8-4.8-8.7c-3.9-1-7.8,1-8.7,4.8
		c-1,3.9,1,7.8,4.8,8.7C130.2,229.8,134.1,226.9,136,223.1z M153.5,239.5c1-3.9-1-8.7-5.8-9.7c-3.9-1-8.7,1-9.7,5.8
		c-1,3.9,1,8.7,5.8,9.7C147.7,246.3,152.5,244.4,153.5,239.5L153.5,239.5z M247.4,222.1c2.9,1,4.8-1,5.8-2.9c1-2.9-1-4.8-2.9-5.8
		c-2.9-1-4.8,1-5.8,2.9C243.5,219.2,245.4,222.1,247.4,222.1L247.4,222.1z M230.9,240.5c2.9,1,5.8-1,6.8-3.9c1-2.9-1-5.8-3.9-6.8
		c-2.9-1-5.8,1-6.8,3.9C226.1,236.6,228,239.5,230.9,240.5L230.9,240.5z M210.6,253.1c3.9,1,7.8-1,8.7-4.8s-1-7.8-4.8-8.7
		c-3.9-1-7.8,1-8.7,4.8C203.8,248.2,206.7,252.1,210.6,253.1L210.6,253.1z M187.3,257.9c3.9,1,8.7-1,9.7-5.8c1-3.9-1-8.7-5.8-9.7
		s-8.7,1-10.6,5.8C180.6,252.1,182.5,256.9,187.3,257.9z M168,125.3c1.9,3.9,1,7.8-2.9,9.7c-3.9,1.9-7.8,1-9.7-2.9
		c-1.9-3.9-1-7.8,2.9-9.7S166.1,121.4,168,125.3z M132.2,182.4c-1.9,1-2.9,3.9-1.9,5.8c1,1.9,3.9,2.9,5.8,1.9c1.9-1,2.9-3.9,1.9-5.8
		C137,181.4,134.1,180.5,132.2,182.4L132.2,182.4z M131.2,164c-1.9,1-2.9,3.9-1.9,6.8c1,2.9,4.8,2.9,6.8,1.9c1.9-1,2.9-4.8,1.9-6.8
		C137,164,134.1,163.1,131.2,164L131.2,164z M136,147.6c-2.9,1.9-3.9,4.8-1.9,7.8c1.9,2.9,4.8,3.9,7.8,1.9c2.9-1.9,3.9-4.8,1.9-7.8
		C141.9,147.6,138.9,145.6,136,147.6L136,147.6z M144.8,133.1c-2.9,1.9-3.9,5.8-2.9,8.7c1.9,2.9,5.8,3.9,8.7,2.9
		c2.9-1.9,3.9-5.8,2.9-8.7C152.5,132.1,148.6,131.1,144.8,133.1L144.8,133.1z M138,198.9c-1.9,1-1.9,2.9-1.9,4.8
		c1,1.9,2.9,1.9,4.8,1c1.9-1,1.9-2.9,1-4.8C141.9,197.9,139.9,197.9,138,198.9z M221.2,138.9c1,1.9,3.9,2.9,5.8,1.9
		c1.9-1,2.9-3.9,1.9-5.8c-1-1.9-3.9-2.9-5.8-1.9C220.3,134,220.3,136.9,221.2,138.9z M206.7,129.2c1,2.9,4.8,2.9,6.8,1.9
		c2.9-1,2.9-3.9,1.9-6.8s-4.8-2.9-6.8-1.9C205.7,124.4,204.8,127.2,206.7,129.2z M189.3,125.3c1.9,2.9,4.8,3.9,7.8,1.9
		c2.9-1.9,3.9-4.8,1.9-7.8s-4.8-3.9-7.8-1.9C189.3,118.5,188.3,122.4,189.3,125.3z M171.9,126.3c1.9,2.9,5.8,3.9,8.7,2.9
		c2.9-1.9,3.9-5.8,2.9-8.7c-1.9-2.9-5.8-3.9-8.7-2.9C171.9,118.5,169.9,122.4,171.9,126.3L171.9,126.3z M231.9,152.4
		c1,1.9,2.9,1.9,4.8,1s1.9-2.9,1-4.8c0-1.9-2.9-1.9-3.9-1C231.9,148.5,230.9,150.5,231.9,152.4L231.9,152.4z M219.3,220.2
		c-1.9-3.9-6.8-4.8-9.7-2.9c-3.9,1.9-4.8,6.8-2.9,9.7c1.9,3.9,6.8,4.8,9.7,2.9C220.3,227.9,221.2,224,219.3,220.2z M153.5,213.4
		c-1-1.9-3.9-2.9-5.8-1.9s-2.9,3.9-1.9,5.8s3.9,2.9,5.8,1.9C154.4,218.2,155.4,215.3,153.5,213.4z M168,222.1
		c-1-1.9-4.8-2.9-6.8-1.9c-2.9,1-2.9,3.9-1.9,6.8s3.9,2.9,6.8,1.9C168.9,227.9,169.9,225,168,222.1L168,222.1z M185.4,226.9
		c-1.9-2.9-4.8-3.9-7.8-1.9c-2.9,1.9-3.9,4.8-1.9,7.8c1.9,2.9,4.8,3.9,7.8,1.9C185.4,233.7,186.4,229.8,185.4,226.9L185.4,226.9z
		 M202.8,226c-1.9-2.9-5.8-3.9-8.7-2.9c-2.9,1.9-3.9,5.8-2.9,8.7c1.9,2.9,5.8,3.9,8.7,2.9C203.8,233.7,204.8,229.8,202.8,226
		L202.8,226z M242.5,169.8c1.9-1,2.9-3.9,1.9-5.8c-1-1.9-3.9-2.9-5.8-1.9c-1.9,1-2.9,3.9-1.9,5.8
		C237.7,170.8,240.6,170.8,242.5,169.8z M243.5,187.3c2.9-1,2.9-4.8,1.9-6.8c-1-2.9-3.9-2.9-6.8-1.9c-2.9,1-2.9,3.9-1.9,6.8
		S241.5,189.2,243.5,187.3L243.5,187.3z M238.7,204.7c2.9-1.9,3.9-4.8,1.9-7.8c-1.9-2.9-4.8-3.9-7.8-1.9c-2.9,1.9-3.9,4.8-1.9,7.8
		C232.9,204.8,235.9,205.6,238.7,204.7L238.7,204.7z M229.9,219.2c2.9-1.9,3.9-5.8,2.9-8.7c-1.9-2.9-5.8-3.9-8.7-2.9
		c-2.9,1.9-3.9,5.8-2.9,8.7C222.2,219.2,227,221.1,229.9,219.2z M354.8,195c-10.2,0-18.4-8.2-18.4-18.4c0-10.2,8.2-18.4,18.4-18.4
		c10.2,0,18.4,8.2,18.4,18.4C373.2,186.3,364.5,195,354.8,195L354.8,195z M281.2,33.4c1-5.8-2.9-10.6-7.8-12.6
		c-5.8-1-10.6,1.9-12.6,7.8c-1,5.8,1.9,11.6,7.8,12.6c5.1,1.7,10.5-1.1,12.2-6.2C281,34.4,281.1,33.9,281.2,33.4z M318,59.5
		c1-6.8-3.9-13.6-10.6-14.5c-6.8-1-13.6,3.9-14.5,10.6s3.9,13.6,10.6,14.5S317,66.3,318,59.5z M348,94.3c1-8.7-4.8-16.5-13.6-17.4
		c-8.7-1-16.5,4.8-17.4,13.6s5.8,16.5,13.6,17.4C339.3,108.9,347,103,348,94.3L348,94.3z M366.4,134c1-9.7-6.8-17.4-16.5-18.4
		c-9.7-1-17.4,6.8-18.4,16.5c-1,9.7,6.8,17.4,16.5,18.4C357.7,150.5,365.4,142.7,366.4,134L366.4,134z M195.1,9.2
		c0-4.3-3.5-7.8-7.8-7.8c-4.3,0-7.8,3.5-7.8,7.8s3.5,7.8,7.8,7.8l0,0C191.2,16.9,195.1,13,195.1,9.2z M268.6,311.1
		c-5.8,1-8.7,6.8-7.8,12.6c1,5.8,6.8,8.7,12.6,7.8c5.8-1,8.7-6.8,7.8-12.6c-0.8-5.3-5.7-8.9-11-8.1
		C269.7,310.8,269.2,311,268.6,311.1z M303.5,282.1c-6.8,1-11.6,7.8-10.6,14.5s7.8,11.6,14.5,10.6c6.8-1,11.6-7.8,10.6-14.5
		C317,286,310.3,281.1,303.5,282.1L303.5,282.1z M330.6,244.4c-8.7,1-14.5,8.7-13.6,17.4s8.7,14.5,17.4,13.5s14.5-8.7,13.6-17.4
		C347,249.2,339.3,243.4,330.6,244.4L330.6,244.4z M348,201.8c-9.7,1-16.5,8.7-16.5,18.4c1,9.7,8.7,16.5,18.4,16.5
		c9.7-1,16.5-8.7,16.5-18.4C365.4,208.5,357.7,201.8,348,201.8L348,201.8z M187.3,335.3c-4.3,0-7.8,3.5-7.8,7.8s3.5,7.8,7.8,7.8
		s7.8-3.5,7.8-7.8l0,0C195.1,339.2,191.2,335.3,187.3,335.3z M19.9,195c10.7,0,19.3-8.7,19.4-19.4c0-10.1-8.2-18.4-18.4-18.4
		c0,0,0,0,0,0c-10.6,0-19.4,8.7-19.4,18.4C1.5,186.3,10.2,195,19.9,195z M106,41.1c5.8-1,8.7-6.8,7.8-12.6c-1-5.8-6.8-8.7-12.6-7.8
		c-4.8,1.9-8.7,6.8-7.8,12.6c0.8,5.3,5.7,8.9,11,8.1C105,41.4,105.5,41.3,106,41.1z M71.2,70.1c6.8-1,11.6-7.8,10.6-14.5
		S74.1,44,67.3,45.9c-6.8,1-11.6,6.8-10.6,13.6S64.4,71.1,71.2,70.1L71.2,70.1z M44.1,107.9c8.7-1,14.5-8.7,13.6-17.4
		c0-7.8-7.8-14.5-16.5-13.6c-8.7,1-14.5,8.7-14.5,17.4C27.6,103,35.4,108.9,44.1,107.9z M26.7,150.5c9.7-1,16.5-8.7,16.5-18.4
		c-1-9.7-8.7-16.5-18.4-16.5c-9.7,1-16.5,8.7-16.5,18.4C9.2,142.7,17,150.5,26.7,150.5z M93.5,318.9c-1,5.8,1.9,10.6,7.8,12.6
		c5.8,1,10.6-1.9,12.6-7.8c1-5.8-1.9-10.6-7.8-12.6c-5.1-1.7-10.5,1.1-12.2,6.2C93.7,317.8,93.5,318.4,93.5,318.9z M56.7,292.8
		c-1,6.8,3.9,13.6,10.6,14.5c6.8,1,13.6-3.9,14.5-10.6c1-6.8-3.9-13.6-10.6-14.5S57.6,286,56.7,292.8L56.7,292.8z M26.7,257.9
		c-1,8.7,4.8,16.5,13.6,17.4s16.5-4.8,17.4-13.6c1-8.7-5.8-16.5-13.6-17.4C35.4,243.4,27.6,249.2,26.7,257.9z M8.3,218.2
		c-1,9.7,6.8,17.4,16.5,18.4s17.4-6.8,18.4-16.5c1-9.7-6.8-17.4-16.4-18.4C17,201.8,9.2,208.5,8.3,218.2z M229,329.5
		c-3.9,1-6.8,5.8-5.8,9.7c1,3.9,5.8,6.8,9.7,5.8c3.9-1,6.8-5.8,5.8-9.7C237.7,331.5,232.8,328.6,229,329.5z M146.7,329.5
		c-3.9-1-8.7,1-9.7,5.8c-1,3.9,1,8.7,5.8,9.7c3.9,1,8.7-1,9.7-5.8C153.5,335.3,150.5,330.5,146.7,329.5z M238.6,16.9
		c1-3.9-1-8.7-5.8-9.7c-3.9-1-8.7,1-9.7,5.8c-1,3.9,1,8.7,5.8,9.7C232.8,23.7,237.7,20.8,238.6,16.9z M151.5,12.1
		c-1-3.9-5.8-6.8-9.7-5.8s-6.8,5.8-5.8,9.7c1,4.8,5.8,7.8,10.6,6.8C150.5,20.8,153.5,16.9,151.5,12.1z M313.2,137.9
		c-7.8,2.9-16.5,0-19.4-7.8c-2.9-7.8,0-16.5,7.8-19.4c7.8-2.9,16.5,0,19.4,7.8C323.8,126.3,320.9,135,313.2,137.9z M210.6,45
		c-1-4.8-4.8-6.8-9.7-6.8c-4.8,1-6.8,4.8-6.8,9.7c1,3.9,4.8,6.8,9.7,6.8C208.6,53.7,211.5,48.8,210.6,45z M245.4,52.7
		c-1-4.8-6.8-8.7-11.6-6.8c-4.8,1-8.7,6.8-6.8,11.6c1,4.8,6.8,8.7,11.6,6.8C243.5,63.4,246.4,57.6,245.4,52.7L245.4,52.7z
		 M277.4,68.2c-1.9-6.8-8.7-9.7-15.5-7.8c-6.8,1.9-9.7,8.7-7.8,15.5c1.9,6.8,8.7,9.7,15.5,7.8C275.4,80.8,279.3,74,277.4,68.2
		L277.4,68.2z M302.5,90.5c-2.9-6.8-10.6-10.6-17.4-7.8c-6.8,2.9-10.6,10.6-7.8,17.4c2.9,6.8,10.6,10.6,17.4,7.8
		C301.5,105,305.4,97.2,302.5,90.5L302.5,90.5z M140.9,53.7c-1-2.9-4.8-3.9-7.8-2.9c-2.9,1-4.8,4.8-2.9,7.8c1,2.9,4.8,3.9,7.8,2.9
		C140.9,60.5,142.8,56.6,140.9,53.7z M287,247.3c-3.9,2.9-4.8,7.8-1.9,11.6c2.9,3.9,7.8,4.8,11.6,1.9s4.8-7.8,1.9-11.6
		C295.7,245.3,290.9,245.3,287,247.3z M303.5,216.3c-4.8,2.9-5.8,8.7-2.9,13.6c2.9,4.8,8.7,5.8,13.6,2.9c4.8-2.9,5.8-8.7,2.9-13.6
		C314.1,214.4,308.3,213.4,303.5,216.3L303.5,216.3z M311.2,180.5c-5.8,2.9-7.8,10.6-4.8,16.5s10.6,7.8,16.5,4.8
		c5.8-2.9,7.8-10.6,4.8-16.5S317,177.6,311.2,180.5L311.2,180.5z M310.3,145.6c-6.8,2.9-9.7,11.6-5.8,18.4
		c2.9,6.8,11.6,9.7,18.4,5.8c6.8-2.9,9.7-11.6,5.8-18.4C325.7,144.7,317,141.8,310.3,145.6L310.3,145.6z M236.7,290.8
		c-2.9,1-3.9,4.8-2.9,7.8c1,2.9,4.8,3.9,7.8,2.9s4.8-4.8,2.9-7.8C243.5,290.8,239.6,288.9,236.7,290.8z M73.1,241.5
		c7.8-2.9,10.6-11.6,7.8-19.4c-2.9-7.7-11.6-10.6-19.4-7.8c-7.7,2.9-10.6,11.6-7.8,19.4C57.6,241.5,66.4,244.4,73.1,241.5z
		 M87.7,105c3.9-2.9,4.8-7.8,1.9-11.6s-7.8-4.8-11.6-1.9c-3.9,2.9-4.8,7.8-1.9,11.6C79.1,106.1,83.8,106.8,87.7,105z M71.2,136
		c4.8-2.9,5.8-8.7,2.9-13.6s-8.7-5.8-13.6-2.9s-5.8,8.7-2.9,13.6C60.6,137.9,66.4,138.9,71.2,136z M63.4,171.8
		c5.8-2.9,7.8-10.6,4.8-16.5s-10.6-8.7-16.4-4.8c-5.8,2.9-7.8,10.6-4.8,16.5C50.9,172.7,57.6,174.7,63.4,171.8L63.4,171.8z
		 M64.4,206.6c6.8-2.9,9.7-11.6,5.8-18.4c-2.9-6.8-11.6-9.7-18.4-5.8c-6.8,2.9-9.7,11.6-5.8,18.4S57.6,210.5,64.4,206.6L64.4,206.6z
		 M164.1,307.3c1,4.8,4.9,6.7,9.7,6.7c4.8-1,6.8-4.8,6.8-9.7c-1-3.9-4.8-6.8-9.7-6.8C166.1,298.6,163.1,303.4,164.1,307.3
		L164.1,307.3z M130.2,299.5c1,4.8,6.8,8.7,11.6,6.8c4.8-1,8.7-6.8,6.8-11.6c-1-4.8-6.8-8.7-11.6-6.8c-4.7,0.7-7.9,5.1-7.3,9.7
		C129.8,298.3,130,298.9,130.2,299.5L130.2,299.5z M98.3,284c1.9,6.8,8.7,9.7,15.5,7.8c6.8-1.9,9.7-8.7,7.8-15.5
		c-1.9-6.8-8.7-9.7-15.5-7.8C99.3,271.5,95.4,278.2,98.3,284L98.3,284z M72.2,261.8c2.9,6.8,10.6,10.6,17.4,7.8
		c6.8-2.9,10.6-10.6,7.8-17.4c-2.9-6.8-10.6-10.6-17.4-7.8C73.1,247.2,70.2,255,72.2,261.8L72.2,261.8z M264.8,273.4
		c-2.9,1.9-2.9,5.8-1,8.7c1.9,2.9,5.8,2.9,8.7,1c2.9-1.9,2.9-5.8,1-8.7S266.7,271.5,264.8,273.4z M205.7,298.6
		c-3.9,1-5.8,3.9-4.8,6.8c1,3.9,3.9,5.8,6.8,4.8c3.9-1,5.8-3.9,5.8-6.8C212.5,300.5,208.6,298.6,205.7,298.6z M174.8,45.9
		c-1-3.9-3.9-5.8-6.8-4.8c-3.9,1-5.8,3.9-4.8,6.8c1,3.9,3.9,5.8,6.8,4.8C172.8,52.7,175.7,49.8,174.8,45.9z M111.8,70.1
		c-1.9-2.9-5.8-2.9-8.7-1c-2.9,1.9-2.9,5.8-1,8.7c1.5,2.4,4.7,3,7.1,1.5c0.2-0.2,0.5-0.3,0.7-0.5C112.8,76.9,113.8,72.1,111.8,70.1z
		"/>
</g>
</svg>
