<svg id="Layer_1" data-name="Layer 1" xmlns="http://www.w3.org/2000/svg" viewBox="0 0 400.78 121.87"><defs><style>.cls-1{fill:#2e2e2e;}</style></defs><title>Scopus_icon</title><path class="cls-1" d="M1108,1460c-7.71,19.23-34.11,24.73-49.34,10.27-3.22-3.06-4.59-6.52-2-10.68,2.46-4,6-5.12,10.32-3.56a71.61,71.61,0,0,1,7.17,3.45c3.83,1.9,7.77,2.89,12.05,1.83a4.4,4.4,0,0,0,3.7-3.56,4.14,4.14,0,0,0-2.12-4.67,59.63,59.63,0,0,0-6.71-3.24c-4.75-2-9.68-3.57-14.06-6.35-11.93-7.58-12.5-23.82-1.16-32.34,9.41-7.07,27-6.76,36.18.61,2.92,2.34,4.59,5.23,4,9.1-.72,5.18-5.26,8-10.2,6.26-3.91-1.37-7.47-3.67-11.62-4.43-3.49-.64-7-.61-8.3,3.36s1.89,5.31,4.61,6.56c3.47,1.59,7.06,2.92,10.62,4.31,7.5,2.92,13.76,7.21,16.81,15.08A14.6,14.6,0,0,1,1108,1460Z" transform="translate(-707.77 -1382.97)"/><path class="cls-1" d="M708.87,1416.06c1.22,7.72,5.76,12.82,12.58,16.24,4.94,2.48,10.26,3.79,15.48,5.44,2.53.8,5.13,1.45,7.58,2.45,4.15,1.7,7.9,3.89,7.37,9.33-.5,5.05-4.33,8.71-10,9.57a26,26,0,0,1-11.8-1.19c-2.53-.79-5-1.77-7.56-2.52-7.95-2.36-11.26-.83-14.54,6.63a5.07,5.07,0,0,0,0,3c1.73,5.16,5.58,8.09,10.5,9.8a58.81,58.81,0,0,0,26.58,2.95c15.38-1.87,26.35-12.52,27.76-26.38,1.52-15-5.43-24.59-21.86-30.13-4.88-1.65-9.89-2.94-14.72-4.7-3.49-1.27-7-3-6.39-7.7s4.1-6.52,8.34-7.22c5-.82,9.5,1.06,14.07,2.56,6.6,2.17,10.92.72,13.07-4.32,2.26-5.27.23-9.92-5.79-13-6.4-3.3-13.28-4-20.37-3.85-15.87.26-27.17,9.49-30.32,25A20.28,20.28,0,0,0,708.87,1416.06Z" transform="translate(-707.77 -1382.97)"/><path class="cls-1" d="M1048.79,1435.46c0,4.83,0,9.66,0,14.49-.18,16.05-8.83,25.85-24.84,27.79a50.43,50.43,0,0,1-12,0c-16-1.93-24.7-11.71-24.82-27.76q-.13-16,0-32c.05-6.22,2.77-10.06,7.42-11,6.42-1.27,11.23,3.06,11.31,10.5.13,11-.1,22,.1,33,.15,8.54,7.27,13.71,15.4,11.52,5.4-1.46,8.5-5.65,8.56-12,.09-10.82,0-21.65.06-32.47.05-6.28,3.19-10.14,8.29-10.63,5.94-.57,10.12,3.26,10.41,10.07.26,6.15.05,12.32.05,18.48Z" transform="translate(-707.77 -1382.97)"/><path class="cls-1" d="M778,1442.33c0-25.68,22-42.08,46.16-34.31,3,1,6,2.21,8.07,4.73,2.88,3.43,2.48,7.1.31,10.63-2,3.28-5,4.16-8.64,2.85-.78-.28-1.61-.44-2.36-.79-16.83-7.8-26.65,5.69-24.5,20.53,1.72,11.88,10.81,17.32,22.13,13.38,1.1-.38,2.18-.82,3.27-1.21,5-1.76,8.57-.72,10.73,3.15s1.21,8.52-3.13,11.32a33,33,0,0,1-29.62,3.59C786.8,1471.6,778,1458.19,778,1442.33Z" transform="translate(-707.77 -1382.97)"/><path class="cls-1" d="M974.75,1422.54c-8.16-17.31-30.14-22.39-43.3-8.8-1.41-3.36-3.33-6.11-7.23-6.75-6.77-1.11-11.32,3.13-11.34,11q-.09,37.73,0,75.45a20.64,20.64,0,0,0,.2,3.49,9.2,9.2,0,0,0,8.92,7.94,8.82,8.82,0,0,0,9.1-7.62,58.38,58.38,0,0,0,.45-9c.06-5.18,0-10.36,0-16,21.41,13.81,41.54.43,46.4-19A44.67,44.67,0,0,0,974.75,1422.54Zm-17.48,31.72c-5.47,9.29-17.28,9-22.71-.4a24.77,24.77,0,0,1-3-13,21.61,21.61,0,0,1,3.2-11.37c5.46-8.39,16.62-8.69,22-.29C962,1437.33,962.16,1446,957.27,1454.26Z" transform="translate(-707.77 -1382.97)"/><path class="cls-1" d="M882.56,1408c-21.07-7.7-43,7.82-44.48,31.48-1.12,18,9.26,33.71,24.89,37.56,22.35,5.51,42-10.8,42-34.86C904.92,1426.76,895.81,1412.84,882.56,1408Zm-11,53c-8.55.07-14.66-7.51-14.81-18.38a22.91,22.91,0,0,1,3.27-12.83c5.61-8.93,17.52-8.81,23,.22a22.35,22.35,0,0,1,3.13,12.37C886.11,1453.18,880.09,1460.88,871.59,1461Z" transform="translate(-707.77 -1382.97)"/></svg>