<svg xmlns="http://www.w3.org/2000/svg" width="150" height="50"><path fill="#222" d="M83.31 36.97L83.25 36.90L83.19 36.85Q84.43 37.86 85.84 37.70L85.87 37.74L85.87 37.73Q88.78 37.91 89.43 34.56L89.46 34.59L89.49 34.62Q89.94 31.30 89.94 27.91L90.05 28.02L89.91 25.29L90.01 25.40Q89.92 24.05 89.58 22.79L89.71 22.92L89.64 22.85Q88.35 25.10 86.37 29.86L86.43 29.92L86.38 29.87Q84.58 34.81 83.36 37.01ZM88.21 20.36L88.23 20.38L88.34 20.49Q87.19 19.68 85.86 19.68L85.76 19.58L85.86 19.68Q84.37 19.53 83.27 20.44L83.21 20.38L83.29 20.46Q82.19 21.38 82.00 22.87L81.84 22.71L81.91 22.78Q81.67 24.25 81.64 25.74L81.59 25.69L81.58 25.68Q81.62 25.72 81.62 28.57L81.46 28.41L81.45 28.41Q81.52 30.83 81.98 34.45L81.98 34.45L81.96 34.44Q83.81 29.62 88.19 20.33ZM89.76 39.15L89.90 39.30L89.83 39.22Q88.18 40.24 85.86 40.24L85.87 40.25L84.11 40.12L84.17 40.18Q80.94 40.19 79.80 38.48L79.73 38.41L79.84 38.52Q78.96 36.27 78.89 33.34L78.89 33.35L78.81 33.26Q78.89 31.63 78.82 28.17L78.69 28.04L78.68 28.04Q78.78 26.95 78.63 23.91L78.63 23.91L78.65 23.93Q78.40 21.48 78.71 19.50L78.72 19.51L78.87 19.66Q79.28 16.64 83.62 16.41L83.61 16.41L83.59 16.39Q84.34 16.33 85.67 16.37L85.76 16.46L85.79 16.48Q91.46 16.64 92.53 20.11L92.45 20.03L92.40 19.98Q92.99 21.87 92.96 23.73L92.98 23.76L93.09 23.87Q92.97 28.81 92.90 30.03L92.98 30.11L92.92 30.05Q92.65 33.78 92.35 35.08L92.45 35.17L92.31 35.04Q91.78 38.28 89.88 39.27ZM94.78 38.99L94.87 39.09L94.88 39.09Q94.95 36.16 94.91 34.37L94.95 34.41L94.85 29.78L94.84 29.77Q94.83 26.82 94.30 21.30L94.24 21.24L94.34 21.35Q93.76 19.47 92.47 18.71L92.55 18.80L92.55 18.80Q90.82 16.08 85.64 15.93L85.79 16.07L85.68 15.96Q84.90 16.02 83.57 16.06L83.61 16.10L83.58 16.07Q79.03 16.12 78.53 19.24L78.58 19.30L78.57 19.28Q78.13 21.55 78.25 23.64L78.15 23.54L78.15 23.55Q78.61 28.04 78.57 31.39L78.52 31.34L78.58 31.40Q78.43 34.98 78.55 36.01L78.54 36.00L78.56 36.02Q78.99 39.16 80.51 39.96L80.48 39.92L80.47 39.91Q81.99 42.15 85.98 42.42L86.01 42.44L86.00 42.43Q89.66 42.75 90.31 42.71L90.30 42.70L90.16 42.56Q93.00 42.39 94.14 40.79L94.30 40.95L94.14 40.79Q94.65 40.12 94.72 38.94ZM86.11 37.22L86.19 37.29L86.25 37.35Q86.97 35.94 88.03 33.24L87.96 33.16L89.70 28.97L89.69 28.95Q89.72 30.66 89.34 34.01L89.15 33.82L89.24 33.91Q88.67 36.88 86.27 37.37ZM84.29 25.08L84.26 25.05L84.25 25.04Q84.74 23.28 85.42 22.71L85.38 22.66L85.42 22.71Q85.75 22.16 87.05 21.97L87.07 22.00L87.14 22.07Q85.35 25.64 83.48 30.28L83.58 30.38L83.60 30.40Q83.46 27.56 84.15 24.94Z"/><path fill="#111" d="M28.37 40.18L28.27 40.08L26.20 40.29L26.16 40.25Q25.75 40.30 24.78 40.36L24.75 40.33L24.74 40.31Q23.79 40.40 23.30 40.40L23.31 40.41L23.37 40.47Q21.76 40.50 20.74 39.66L20.71 39.64L20.59 39.51Q21.48 38.51 23.12 36.38L23.01 36.26L23.00 36.26Q24.39 37.95 26.59 37.72L26.48 37.60L26.46 37.59Q27.46 37.55 28.10 36.90L28.05 36.85L28.07 36.87Q28.70 36.20 28.58 35.33L28.73 35.47L28.62 35.36Q28.50 30.75 28.57 26.18L28.51 26.12L28.52 26.12Q28.71 21.68 29.25 17.07L29.19 17.02L29.22 17.05Q31.04 16.73 33.17 15.70L33.16 15.69L33.22 15.75Q31.47 22.61 31.47 29.84L31.37 29.74L31.40 29.77Q31.38 33.29 31.84 36.80L31.85 36.80L31.93 36.88Q31.84 37.06 31.84 37.40L31.90 37.46L31.93 37.49Q31.97 38.11 31.74 38.64L31.74 38.64L31.76 38.65Q31.10 39.83 28.29 40.09ZM33.21 42.92L33.19 42.90L33.66 43.04L33.82 42.77L34.15 42.72L34.06 42.63Q34.52 42.52 34.60 42.41L34.43 42.24L34.43 42.24Q34.78 41.22 34.52 40.23L34.42 40.13L34.44 40.16Q33.07 34.34 33.34 27.98L33.46 28.10L33.44 28.08Q33.52 21.80 35.31 15.90L35.38 15.97L35.39 15.98Q34.60 16.71 33.34 17.44L33.20 17.29L33.29 17.38Q33.37 16.51 33.79 14.99L33.82 15.02L33.95 15.15Q31.28 16.32 28.61 16.63L28.65 16.66L28.73 16.74Q28.40 21.17 28.33 26.12L28.21 26.01L28.21 26.01Q28.15 31.92 28.23 35.35L28.36 35.48L28.35 35.48Q28.33 37.17 26.58 37.32L26.58 37.32L26.53 37.27Q24.93 37.50 23.25 35.86L23.10 35.71L23.11 35.72Q21.08 38.26 20.13 39.82L20.16 39.85L20.16 39.85Q20.71 40.40 21.74 40.63L21.93 40.82L21.85 40.74Q21.81 40.93 21.54 41.16L21.49 41.10L21.45 41.06Q22.87 41.98 24.85 42.25L24.83 42.23L24.96 42.37Q25.28 42.35 28.58 42.65L28.66 42.73L28.58 42.65Q31.85 42.93 33.22 42.93Z"/><path fill="#333" d="M63.23 21.58L63.15 21.50L63.09 21.44Q61.42 20.09 59.79 19.70L59.87 19.79L59.92 19.84Q58.67 19.42 55.89 19.38L55.90 19.39L56.05 19.54Q50.73 19.37 48.67 21.38L48.80 21.51L48.82 21.53Q47.19 23.09 47.30 26.79L47.31 26.80L47.26 26.75Q47.34 30.48 47.49 31.43L47.56 31.50L47.44 31.38Q48.61 37.57 56.34 37.57L56.31 37.55L56.35 37.59Q60.97 37.52 63.06 35.12L63.11 35.18L62.99 35.05Q65.05 33.04 65.28 28.28L65.24 28.24L65.18 28.19Q65.41 23.35 63.09 21.44ZM56.31 40.55L56.20 40.44L56.34 40.58Q49.76 40.67 46.79 38.30L46.69 38.20L46.80 38.32Q44.66 36.10 44.55 31.04L44.56 31.05L44.56 31.05Q44.58 30.58 44.43 27.30L44.28 27.15L44.34 27.22Q44.17 24.57 44.21 23.51L44.29 23.59L44.23 23.53Q44.42 20.71 45.83 19.00L45.80 18.97L45.75 18.92Q48.27 16.60 53.15 16.45L53.26 16.57L53.25 16.56Q54.91 16.39 55.79 16.43L55.97 16.61L55.89 16.54Q65.79 16.57 67.54 20.91L67.61 20.98L67.72 21.10Q68.49 23.08 68.34 25.82L68.23 25.72L68.31 25.79Q68.25 27.44 68.06 30.72L68.12 30.78L68.00 30.65Q67.90 33.57 66.99 35.63L67.05 35.68L66.98 35.61Q64.88 40.29 56.24 40.49ZM68.69 40.56L68.59 40.46L68.56 40.43Q69.90 38.62 70.02 35.53L70.05 35.57L70.08 35.59Q70.14 34.55 70.10 32.95L70.01 32.86L70.14 32.99Q70.13 32.26 70.10 30.43L69.97 30.31L70.07 30.41Q70.01 23.27 68.07 20.79L68.12 20.84L68.04 20.76Q67.67 19.78 66.56 18.68L66.63 18.74L66.64 18.75Q63.33 16.25 55.87 16.09L55.85 16.08L55.86 16.08Q48.50 16.00 45.46 18.59L45.34 18.47L45.31 18.43Q43.89 20.33 43.89 23.26L43.97 23.34L43.88 23.26Q43.88 24.55 44.03 25.88L43.98 25.83L44.14 25.99Q44.16 27.07 44.20 28.52L44.21 28.53L44.13 28.45Q44.27 32.40 44.43 33.58L44.36 33.52L44.46 33.62Q44.83 36.54 46.17 38.33L46.04 38.20L46.15 38.32Q46.55 39.55 47.61 40.31L47.68 40.38L47.55 40.25Q50.86 42.64 58.63 42.83L58.58 42.79L58.64 42.84Q66.04 43.13 68.71 40.58ZM64.92 28.19L65.01 28.28L64.93 28.20Q64.79 32.81 62.88 34.91L62.74 34.76L62.77 34.79Q60.65 37.01 56.20 37.05L56.22 37.07L56.31 37.17Q51.98 37.21 49.85 35.31L49.83 35.29L49.87 35.33Q49.15 33.70 49.22 30.80L49.17 30.75L49.21 30.79Q49.17 26.03 51.19 23.86L51.19 23.86L51.21 23.88Q53.35 21.84 57.96 21.84L57.81 21.69L57.86 21.73Q62.09 21.78 64.19 23.65L64.07 23.54L64.14 23.61Q64.98 25.35 64.86 28.13Z"/><path d="M16 16 C83 28,95 42,135 12" stroke="#888" fill="none"/><path fill="#444" d="M122.41 21.57L122.27 21.43L122.35 21.50Q120.69 20.15 119.05 19.77L119.16 19.88L119.11 19.82Q117.89 19.45 115.11 19.41L115.13 19.43L115.27 19.57Q109.95 19.38 107.89 21.40L107.94 21.45L108.01 21.52Q106.27 22.98 106.39 26.67L106.38 26.66L106.36 26.65Q106.49 30.43 106.64 31.38L106.66 31.40L106.74 31.48Q107.80 37.57 115.53 37.57L115.53 37.57L115.51 37.55Q120.26 37.61 122.35 35.21L122.21 35.07L122.17 35.03Q124.20 32.99 124.42 28.23L124.47 28.27L124.42 28.22Q124.60 23.34 122.28 21.44ZM115.47 40.52L115.36 40.41L115.38 40.42Q108.90 40.61 105.93 38.25L105.87 38.19L105.85 38.16Q103.83 36.07 103.72 31.01L103.75 31.04L103.71 31.00Q103.80 30.60 103.65 27.32L103.55 27.22L103.60 27.27Q103.34 24.54 103.37 23.47L103.50 23.60L103.41 23.50Q103.54 20.62 104.94 18.91L105.06 19.02L104.93 18.90Q107.59 16.73 112.47 16.57L112.50 16.61L112.50 16.61Q114.28 16.56 115.15 16.59L115.07 16.51L115.06 16.50Q125.06 16.65 126.82 20.99L126.83 21.00L126.77 20.94Q127.71 23.10 127.56 25.84L127.44 25.72L127.56 25.84Q127.48 27.48 127.29 30.75L127.32 30.78L127.30 30.76Q127.03 33.50 126.12 35.55L126.24 35.68L126.18 35.62Q124.03 40.24 115.38 40.43ZM127.90 40.58L127.88 40.55L127.91 40.58Q129.29 38.80 129.40 35.72L129.33 35.65L129.27 35.58Q129.43 34.64 129.39 33.04L129.31 32.96L129.28 32.93Q129.40 32.33 129.37 30.50L129.33 30.47L129.18 30.32Q129.24 23.30 127.30 20.82L127.17 20.69L127.34 20.86Q126.88 19.79 125.78 18.69L125.77 18.69L125.80 18.71Q122.53 16.25 115.07 16.09L115.07 16.10L115.01 16.03Q107.58 15.87 104.54 18.46L104.70 18.63L104.61 18.54Q103.08 20.32 103.08 23.25L103.09 23.26L103.15 23.33Q103.02 24.49 103.17 25.82L103.18 25.83L103.24 25.88Q103.20 26.91 103.23 28.35L103.38 28.50L103.38 28.50Q103.45 32.37 103.60 33.55L103.70 33.65L103.70 33.66Q104.00 36.51 105.34 38.30L105.31 38.27L105.23 38.19Q105.81 39.61 106.88 40.38L106.77 40.26L106.93 40.43Q110.10 42.68 117.86 42.87L117.87 42.88L117.85 42.86Q125.10 42.99 127.77 40.44ZM124.08 28.15L124.20 28.27L124.17 28.24Q123.95 32.78 122.05 34.87L121.91 34.73L121.93 34.75Q119.95 37.12 115.50 37.16L115.41 37.07L115.45 37.11Q111.15 37.18 109.02 35.28L108.93 35.19L109.07 35.33Q108.20 33.55 108.28 30.66L108.30 30.68L108.43 30.81Q108.35 26.01 110.37 23.84L110.42 23.89L110.42 23.90Q112.45 21.74 117.06 21.74L117.05 21.72L117.18 21.86Q121.31 21.80 123.41 23.67L123.38 23.64L123.38 23.64Q124.15 25.33 124.04 28.11Z"/></svg>