<svg xmlns="http://www.w3.org/2000/svg" width="150" height="50"><path fill="#444" d="M26.60 29.10L26.75 29.25L26.59 29.09Q24.89 29.26 23.67 30.59L23.62 30.54L23.53 30.45Q22.41 31.87 22.25 33.78L22.18 33.71L22.23 33.75Q22.11 35.96 23.33 36.97L23.22 36.86L23.24 36.88Q24.46 37.88 26.59 37.81L26.67 37.89L26.62 37.84Q29.00 37.74 29.95 36.79L29.95 36.79L29.89 36.73Q30.95 35.31 30.83 33.48L30.76 33.42L30.78 33.43Q30.68 31.58 29.59 30.38L29.56 30.35L29.62 30.41Q28.50 29.17 26.67 29.17ZM26.57 19.67L26.59 19.69L26.74 19.84Q25.17 19.56 23.84 20.06L23.99 20.21L23.86 20.08Q22.70 21.01 22.93 22.88L22.81 22.76L22.79 22.74Q23.28 26.46 26.63 26.46L26.62 26.45L26.61 26.45Q28.26 26.73 29.25 25.58L29.20 25.53L29.22 25.56Q30.25 24.45 30.28 22.89L30.22 22.82L30.22 22.82Q30.37 21.15 29.65 20.54L29.53 20.42L29.63 20.52Q27.93 19.66 26.64 19.73ZM26.32 40.24L26.46 40.39L23.26 40.23L23.28 40.25Q21.80 40.28 20.46 39.41L20.52 39.46L20.49 39.43Q19.03 38.20 19.18 35.35L19.16 35.33L19.22 35.38Q19.74 28.59 23.35 27.60L23.29 27.54L23.31 27.57Q21.10 26.72 19.77 21.35L19.70 21.29L19.74 21.33Q19.40 19.92 19.48 19.12L19.41 19.05L19.37 19.02Q19.77 16.98 23.46 16.94L23.39 16.87L23.47 16.95Q27.73 16.90 29.17 17.09L29.12 17.04L29.22 17.14Q32.87 17.48 33.33 19.50L33.37 19.54L33.51 19.68Q33.56 20.23 33.56 20.61L33.56 20.61L33.54 20.59Q33.51 21.24 33.32 21.85L33.30 21.83L33.32 21.85Q32.70 26.06 29.77 27.58L29.84 27.65L29.75 27.57Q33.25 28.36 33.74 33.65L33.77 33.68L33.73 33.64Q33.84 33.90 33.87 35.19L33.94 35.26L33.78 35.10Q33.88 37.86 32.28 38.93L32.39 39.04L32.23 38.87Q30.87 39.76 26.30 40.22ZM28.58 42.54L28.77 42.72L32.07 42.75L31.97 42.65Q33.80 42.84 35.32 42.12L35.21 42.01L35.31 42.11Q36.43 41.36 36.50 39.50L36.51 39.51L36.42 39.42Q36.45 38.30 36.07 36.36L36.20 36.50L36.17 36.46Q35.13 31.69 33.04 29.83L33.16 29.94L32.87 29.47L32.71 29.23L32.64 29.05L32.54 28.95Q34.21 27.61 35.12 23.46L35.14 23.48L35.10 23.44Q35.18 23.14 35.26 22.30L35.19 22.24L35.31 22.35Q35.28 21.57 35.21 20.96L35.23 20.98L35.25 21.00Q35.05 19.51 33.87 19.01L33.86 19.00L33.97 19.07L33.80 18.98L33.69 18.86Q33.50 18.22 32.32 17.42L32.36 17.46L32.31 17.37L32.37 17.43Q30.38 16.74 26.31 16.55L26.18 16.42L26.26 16.50Q24.72 16.41 23.35 16.52L23.25 16.43L23.41 16.59Q22.51 16.52 21.22 16.67L21.34 16.80L21.28 16.73Q19.28 17.06 19.05 18.70L19.05 18.69L19.16 18.81Q19.10 19.28 19.14 20.08L19.14 20.08L19.00 19.94Q19.23 20.59 19.81 22.95L19.67 22.82L19.71 22.86Q20.48 26.07 22.23 27.40L22.35 27.51L22.34 27.50L22.44 27.60Q19.52 28.76 18.99 33.94L19.06 34.01L19.02 33.97Q18.88 36.22 18.88 37.14L18.89 37.15L18.93 37.19Q18.94 38.91 20.12 39.83L20.20 39.91L20.19 39.90Q20.34 40.01 20.61 40.20L20.49 40.08L20.59 40.18Q21.61 42.46 28.73 42.69ZM28.33 31.55L28.30 31.52L28.34 31.57Q29.17 31.40 30.05 31.86L30.21 32.03L30.21 32.02Q30.58 33.00 30.54 33.53L30.51 33.50L30.56 33.55Q30.55 33.81 30.55 34.11L30.52 34.09L30.50 34.06Q30.54 36.47 28.26 37.31L28.26 37.30L28.21 37.25Q27.43 37.58 26.63 37.47L26.69 37.52L26.64 37.47Q25.48 37.54 24.34 37.08L24.42 37.16L24.29 37.03Q24.16 36.52 24.24 35.53L24.18 35.47L24.19 35.48Q24.40 33.95 25.60 32.73L25.45 32.58L25.48 32.60Q26.70 31.41 28.30 31.52ZM28.46 21.98L28.57 22.08L28.62 22.14Q29.34 21.94 29.87 22.09L29.88 22.10L29.93 22.95L29.86 22.88Q29.83 24.26 28.92 25.27L29.05 25.40L29.06 25.41Q27.97 26.24 26.60 26.05L26.76 26.22L26.76 26.21Q25.79 26.24 25.37 26.01L25.31 25.95L25.24 25.87Q25.15 25.56 25.04 24.87L25.03 24.87L25.16 25.00Q24.84 23.53 26.06 22.69L26.07 22.70L26.01 22.65Q27.19 22.08 28.60 22.11Z"/><path d="M13 48 C76 41,57 11,133 48" stroke="#777" fill="none"/><path fill="#444" d="M82.06 33.05L82.06 33.05L81.92 32.91Q85.03 32.56 88.23 32.67L88.21 32.66L88.30 32.75Q88.15 30.08 88.15 27.68L88.12 27.65L88.15 27.68Q88.22 25.28 88.41 22.73L88.40 22.72L88.41 22.73Q87.11 24.36 81.90 32.89ZM91.90 40.34L91.83 40.27L91.86 40.30Q90.14 39.95 88.35 39.88L88.32 39.84L88.42 39.94Q88.27 37.63 88.16 35.15L88.03 35.03L88.11 35.10Q82.77 34.90 78.05 36.31L78.11 36.37L78.06 36.32Q78.21 35.86 78.40 34.87L78.37 34.84L78.42 34.89Q80.22 31.74 83.80 25.46L83.80 25.46L83.72 25.38Q86.52 20.42 89.95 16.53L90.05 16.63L89.99 16.57Q90.98 16.50 92.66 16.24L92.64 16.22L92.68 16.26Q90.59 22.51 90.59 29.55L90.62 29.58L90.67 29.63Q90.71 31.15 90.78 32.63L90.72 32.57L92.11 32.78L92.00 32.68Q92.75 32.85 93.36 32.97L93.22 32.83L93.31 32.91Q93.39 33.88 93.66 35.82L93.57 35.73L93.59 35.75Q92.36 35.47 90.87 35.28L90.94 35.35L90.98 35.39Q91.14 37.34 91.83 40.27ZM93.59 32.55L93.47 32.43L93.46 32.42Q93.40 32.48 93.21 32.48L93.20 32.46L92.85 32.49L92.73 32.38Q92.66 30.93 92.66 29.52L92.74 29.61L92.56 29.43Q92.76 23.23 94.81 17.21L94.73 17.13L94.78 17.18Q94.00 17.43 92.56 17.81L92.49 17.75L92.57 17.82Q92.82 17.09 93.28 15.68L93.10 15.50L93.26 15.66Q91.86 15.94 89.80 16.16L89.83 16.19L89.81 16.17Q85.97 20.59 80.76 29.96L80.66 29.86L82.83 26.28L82.71 26.16Q82.47 27.37 82.20 27.94L82.12 27.86L77.60 36.81L77.71 36.92Q78.26 36.68 79.41 36.30L79.46 36.35L79.37 36.64L79.30 36.58Q79.18 37.25 78.88 38.51L78.85 38.48L78.87 38.50Q82.93 37.12 87.76 37.31L87.76 37.30L87.85 37.40Q87.85 38.31 88.04 40.29L88.14 40.38L88.05 40.30Q89.06 40.24 90.13 40.35L90.18 40.41L90.09 40.32Q90.36 41.12 90.63 42.49L90.52 42.39L90.60 42.47Q92.44 42.63 95.45 43.54L95.52 43.62L95.60 43.70Q94.62 41.58 93.71 38.30L93.57 38.17L95.00 38.61L95.02 38.62Q95.84 38.99 96.52 39.33L96.44 39.24L96.50 39.31Q95.62 36.71 95.47 35.04L95.39 34.96L95.45 35.01Q94.86 34.85 93.72 34.62L93.74 34.64L93.76 34.66Q93.50 33.33 93.50 32.46ZM85.48 32.28L85.45 32.25L85.45 32.25Q86.35 31.10 87.91 28.54L87.84 28.47L87.95 28.59Q87.89 29.48 87.85 30.43L87.85 30.42L87.92 30.49Q87.89 31.46 87.93 32.41L87.85 32.34L87.85 32.33Q87.37 32.38 86.80 32.38L86.70 32.29L86.79 32.38Q86.12 32.31 85.51 32.31Z"/><path fill="#111" d="M53.52 19.34L53.55 19.37L53.59 19.41Q54.35 23.55 54.50 27.13L54.60 27.23L54.50 27.13Q55.60 27.20 56.66 27.20L56.64 27.18L58.85 27.18L58.91 27.24Q59.96 27.23 60.84 25.82L60.90 25.88L60.75 25.73Q61.46 24.54 61.57 23.36L61.57 23.35L61.62 23.40Q62.03 20.43 57.81 19.94L57.75 19.88L57.74 19.87Q56.09 19.86 53.47 19.29ZM54.61 29.99L54.48 29.86L54.63 30.00Q54.59 36.25 53.45 40.67L53.44 40.65L53.44 40.65Q51.98 41.05 49.65 42.12L49.51 41.98L49.51 41.97Q51.88 35.32 51.61 28.05L51.60 28.04L51.75 28.19Q51.30 20.66 48.52 14.23L48.62 14.32L48.60 14.30Q52.85 17.18 59.09 17.18L58.90 16.99L58.98 17.07Q65.06 17.09 65.21 20.56L65.25 20.60L65.14 20.49Q65.35 23.06 64.36 25.73L64.25 25.62L64.27 25.63Q63.91 26.80 62.96 28.01L62.92 27.98L62.93 27.99Q61.63 29.62 59.08 29.89L59.09 29.90L59.04 29.84Q56.86 29.95 54.61 29.98ZM60.63 32.12L60.64 32.13L60.64 32.13Q64.90 32.47 66.15 27.67L66.05 27.57L66.08 27.60Q67.10 24.01 66.94 21.99L66.86 21.90L66.93 21.97Q66.70 20.33 65.94 19.34L65.96 19.37L65.97 19.37Q65.59 19.00 65.10 18.77L65.26 18.94L65.29 18.96Q65.28 18.80 64.67 18.04L64.61 17.98L64.64 18.01Q63.03 16.63 59.08 16.63L59.11 16.66L59.12 16.68Q52.18 16.63 47.96 13.47L47.98 13.49L47.99 13.50Q51.08 20.51 51.34 27.98L51.32 27.95L51.34 27.97Q51.62 35.64 48.95 42.72L49.06 42.82L48.93 42.70Q50.04 42.09 51.03 41.71L51.01 41.69L50.67 42.87L50.65 42.85Q50.60 43.56 50.33 44.13L50.22 44.02L50.32 44.12Q52.70 43.04 55.60 42.51L55.56 42.47L55.54 42.45Q56.36 36.91 56.43 32.19L56.54 32.30L56.48 32.24Q57.66 32.24 58.65 32.24L58.48 32.06L58.58 32.16Q59.85 32.10 60.65 32.14ZM59.69 22.19L59.81 22.32L59.72 22.23Q60.18 22.19 61.17 22.42L61.27 22.52L61.24 22.49Q61.44 22.81 61.48 23.11L61.43 23.06L61.30 22.93Q61.45 23.31 61.37 23.58L61.29 23.49L61.41 23.62Q61.30 24.83 60.58 25.71L60.56 25.69L60.55 25.68Q60.03 26.80 59.00 26.99L58.88 26.87L58.86 26.85Q58.19 26.90 56.55 26.90L56.56 26.91L56.52 26.87Q56.40 24.50 56.17 22.14L56.15 22.12L58.00 22.30L58.05 22.35Q58.85 22.31 59.73 22.23Z"/><path fill="#222" d="M114.88 29.93L114.85 29.90L114.92 29.97Q114.51 29.79 114.20 29.79L114.23 29.82L114.35 29.93Q113.01 29.93 111.57 30.77L111.48 30.69L111.41 30.61Q110.17 31.81 110.17 33.71L110.06 33.60L110.20 33.74Q110.06 37.03 111.59 38.36L111.63 38.41L111.69 38.47Q112.69 39.70 114.98 39.70L114.82 39.54L114.92 39.64Q115.24 39.74 115.55 39.74L115.48 39.66L115.45 39.64Q117.12 39.60 118.27 37.96L118.36 38.06L118.28 37.98Q119.28 36.43 119.21 34.64L119.28 34.71L119.32 34.75Q119.32 34.22 119.32 33.80L119.30 33.78L119.26 33.74Q119.31 32.00 117.94 30.84L118.00 30.90L118.06 30.96Q116.65 29.76 114.86 29.91ZM119.38 40.10L119.30 40.02L119.27 40.00Q118.42 42.08 114.69 42.19L114.57 42.07L114.69 42.19Q111.16 42.16 109.56 40.57L109.57 40.57L109.50 40.50Q108.06 38.76 107.26 33.96L107.34 34.04L107.31 34.01Q106.96 32.21 106.96 30.96L107.09 31.09L106.92 30.92Q107.09 29.30 107.81 28.23L107.72 28.14L107.76 28.18Q109.17 26.84 112.13 26.84L112.09 26.80L112.06 26.77Q118.39 26.78 120.30 29.37L120.30 29.37L120.22 29.30Q120.56 28.65 120.98 27.05L120.98 27.05L120.82 26.89Q122.20 26.70 124.63 25.90L124.56 25.83L124.60 25.87Q122.08 31.43 121.86 37.74L121.92 37.81L122.01 37.90Q121.70 43.98 123.83 49.81L123.78 49.76L123.91 49.89Q122.06 49.14 120.27 48.87L120.27 48.87L120.43 49.03Q119.33 44.89 119.21 39.94ZM120.15 49.33L120.06 49.23L120.08 49.26Q120.72 49.33 122.13 49.63L122.28 49.78L122.14 49.64Q122.47 50.46 123.04 51.87L122.98 51.81L123.08 51.92Q125.50 52.47 127.78 53.76L127.80 53.78L127.89 53.86Q123.78 47.21 123.78 38.68L123.81 38.71L123.87 38.77Q123.75 32.30 126.23 26.51L126.24 26.52L126.34 26.62Q125.64 26.91 124.27 27.56L124.17 27.46L124.35 27.64Q124.48 26.67 125.13 25.11L125.14 25.12L125.16 25.14Q123.73 25.80 120.53 26.67L120.47 26.61L120.55 26.70Q120.39 27.22 120.08 28.40L119.99 28.30L119.98 28.29Q118.05 26.48 111.92 26.33L111.94 26.34L111.95 26.36Q108.81 26.34 107.44 27.82L107.36 27.74L107.28 27.66Q106.64 28.93 106.68 30.83L106.56 30.71L106.58 30.73Q106.65 33.69 107.64 37.46L107.75 37.57L107.81 37.63Q108.46 40.04 109.38 40.99L109.26 40.87L109.74 41.35L109.73 41.34Q110.90 44.11 116.35 44.34L116.34 44.34L116.26 44.25Q117.33 44.33 119.15 44.03L119.09 43.96L119.08 43.95Q119.40 46.90 120.01 49.19ZM116.62 32.09L116.69 32.16L116.66 32.13Q117.84 32.25 118.68 32.55L118.63 32.51L118.66 32.53Q118.85 33.07 118.97 33.68L118.89 33.60L118.98 33.68Q118.99 34.16 118.91 34.77L118.89 34.74L118.98 34.83Q118.87 36.62 117.84 37.92L117.87 37.94L117.92 38.00Q116.79 39.46 114.93 39.27L114.98 39.32L114.88 39.22Q113.70 39.33 112.75 38.91L112.71 38.88L112.67 38.84Q112.30 38.01 112.30 36.79L112.24 36.73L112.22 36.72Q112.24 36.43 112.24 36.12L112.22 36.10L112.35 36.23Q112.33 34.47 113.67 33.30L113.55 33.19L113.64 33.28Q114.98 32.13 116.73 32.20Z"/></svg>